<svg xmlns="http://www.w3.org/2000/svg" xmlns:xlink="http://www.w3.org/1999/xlink"><defs>
        <clipPath id="a">
            <path fill="#fff" transform="rotate(90 21.5 21.5)" d="M0 0h70v24H0z"/>
        </clipPath>
    </defs><symbol id="contact" viewBox="0 0 24 24"><g fill="none">
    <path d="M22 16.92v3a2 2 0 0 1-2.18 2 19.79 19.79 0 0 1-8.63-3.07 19.5 19.5 0 0 1-6-6 19.79 19.79 0 0 1-3.07-8.67A2 2 0 0 1 4.11 2h3a2 2 0 0 1 2 1.72c.127.96.361 1.903.7 2.81a2 2 0 0 1-.45 2.11L8.09 9.91a16 16 0 0 0 6 6l1.27-1.27a2 2 0 0 1 2.11-.45c.907.339 1.85.574 2.81.7A2 2 0 0 1 22 16.92Z" fill="#BC3324"/>
</g></symbol><symbol id="handshake" viewBox="0 0 24 24"><g fill="none">
    <path d="M16.48 10.41c-.39.39-1.04.39-1.43 0l-4.47-4.46-7.05 7.04-.66-.63a3 3 0 0 1 0-4.24l4.24-4.24a3 3 0 0 1 4.24 0L16.48 9c.39.39.39 1.02 0 1.41Zm.7-2.12c.78.78.78 2.05 0 2.83-1.27 1.27-2.61.22-2.83 0l-3.76-3.76-5.57 5.57a.996.996 0 0 0 0 1.41c.39.39 1.02.39 1.42 0l4.62-4.62.71.71-4.62 4.62a.996.996 0 0 0 0 1.41c.39.39 1.02.39 1.42 0l4.62-4.62.71.71-4.62 4.62a.997.997 0 0 0 1.41 1.41l4.62-4.62.71.71-4.62 4.62a.998.998 0 0 0 .705 1.702.997.997 0 0 0 .705-.292l8.32-8.34a3 3 0 0 0 0-4.24l-4.24-4.24a3.001 3.001 0 0 0-4.18-.06l4.47 4.47Z" fill="#BC3324"/>
</g></symbol><symbol id="home" viewBox="0 0 24 24"><g fill="none">
    <path d="m20 8-6-5.26a3 3 0 0 0-4 0L4 8a3 3 0 0 0-1 2.26V19a3 3 0 0 0 3 3h12a3 3 0 0 0 3-3v-8.75A3 3 0 0 0 20 8Zm-6 12h-4v-5a1 1 0 0 1 1-1h2a1 1 0 0 1 1 1v5Zm5-1a1 1 0 0 1-1 1h-2v-5a3 3 0 0 0-3-3h-2a3 3 0 0 0-3 3v5H6a1 1 0 0 1-1-1v-8.75a1 1 0 0 1 .34-.75l6-5.25a1 1 0 0 1 1.32 0l6 5.25a1 1 0 0 1 .34.75V19Z" fill="currentColor"/>
    <path d="M19 19a1 1 0 0 1-1 1h-2v-5a3 3 0 0 0-3-3h-2a3 3 0 0 0-3 3v5H6a1 1 0 0 1-1-1v-8.75a1 1 0 0 1 .34-.75l6-5.25a1 1 0 0 1 1.32 0l6 5.25a1 1 0 0 1 .34.75V19Z" fill="#currentColor"/>
</g></symbol><symbol id="information" viewBox="0 0 24 24"><g fill="none">
    <path fill-rule="evenodd" clip-rule="evenodd" d="M12 23c6.075 0 11-4.925 11-11S18.075 1 12 1 1 5.925 1 12s4.925 11 11 11Zm-1-6.6a1 1 0 0 1 1-1h.011a1 1 0 1 1 0 2H12a1 1 0 0 1-1-1Zm2-8.8a1 1 0 1 0-2 0V12a1 1 0 1 0 2 0V7.6Z" fill="#BC3324"/>
</g></symbol><symbol id="insta" viewBox="0 0 58 58"><g fill="none">
    <circle cx="29" cy="29" r="29" fill="#1F1E1E"/>
    <path d="M29 24a5 5 0 1 0 0 10 5 5 0 0 0 0-10Zm0 8.247a3.248 3.248 0 1 1 0-6.496 3.248 3.248 0 0 1 0 6.496ZM34 25a1 1 0 1 0 0-2 1 1 0 0 0 0 2Z" fill="#fff"/>
    <path d="M38.47 22.444a5.106 5.106 0 0 0-2.924-2.918 7.348 7.348 0 0 0-2.428-.466c-1.07-.047-1.408-.06-4.12-.06s-3.06 0-4.12.06c-.83.016-1.65.174-2.426.466a5.11 5.11 0 0 0-2.925 2.918 7.293 7.293 0 0 0-.465 2.424c-.048 1.067-.062 1.405-.062 4.114 0 2.708 0 3.053.062 4.114.017.83.173 1.648.465 2.425a5.11 5.11 0 0 0 2.926 2.919 7.321 7.321 0 0 0 2.427.499c1.07.047 1.408.061 4.12.061s3.06 0 4.12-.061a7.355 7.355 0 0 0 2.428-.465 5.125 5.125 0 0 0 2.924-2.92 7.296 7.296 0 0 0 .466-2.423c.048-1.067.062-1.405.062-4.114 0-2.71 0-3.053-.062-4.114a7.286 7.286 0 0 0-.468-2.459Zm-1.352 10.57a5.585 5.585 0 0 1-.346 1.872 3.312 3.312 0 0 1-1.901 1.897 5.544 5.544 0 0 1-1.855.345c-1.055.049-1.353.061-4.058.061-2.708 0-2.984 0-4.06-.06a5.514 5.514 0 0 1-1.853-.346 3.316 3.316 0 0 1-1.91-1.897 5.627 5.627 0 0 1-.345-1.85c-.047-1.054-.058-1.351-.058-4.053s0-2.978.058-4.053a5.579 5.579 0 0 1 .346-1.87 3.314 3.314 0 0 1 1.909-1.899 5.571 5.571 0 0 1 1.853-.345c1.057-.047 1.353-.06 4.06-.06 2.706 0 2.984 0 4.058.06.634.008 1.26.125 1.855.345a3.322 3.322 0 0 1 1.901 1.899c.218.593.335 1.219.346 1.85.047 1.055.06 1.351.06 4.053s0 2.992-.048 4.052h-.013Z" fill="#fff"/>
</g></symbol><symbol id="link" viewBox="0 0 92 62"><g fill="none">
    <path d="M40 52.213a29.836 29.836 0 0 0 15.297 8.21 29.76 29.76 0 0 0 17.26-1.707 29.902 29.902 0 0 0 13.408-11.049A30.089 30.089 0 0 0 91 31a30.089 30.089 0 0 0-5.035-16.667 29.902 29.902 0 0 0-13.407-11.05 29.76 29.76 0 0 0-17.262-1.707A29.837 29.837 0 0 0 40 9.786" stroke="currentColor" stroke-width="2" stroke-linecap="round"/>
    <path d="M5 31h60M58 24l7 7-7 7" stroke="currentColor" stroke-width="2" stroke-linecap="round" stroke-linejoin="round"/>
</g></symbol><symbol id="link90"><g fill="none">
    <path d="M9.787 40a29.837 29.837 0 0 0-8.21 15.297 29.76 29.76 0 0 0 1.707 17.26 29.902 29.902 0 0 0 11.049 13.408A30.089 30.089 0 0 0 31 91a30.089 30.089 0 0 0 16.667-5.035 29.902 29.902 0 0 0 11.05-13.407 29.76 29.76 0 0 0 1.706-17.262A29.836 29.836 0 0 0 52.213 40" stroke="#1F1E1E" stroke-width="2" stroke-linecap="round"/>
    <g clip-path="url(#a)" stroke="#1F1E1E" stroke-width="2" stroke-linecap="round" stroke-linejoin="round">
        <path d="M31 5v60M38 58l-7 7-7-7"/>
    </g>
    
</g></symbol><symbol id="location" viewBox="0 0 24 24"><g fill="none">
    <circle cx="12" cy="12" r="9" fill="currentColor"/>
</g></symbol><symbol id="log-in" viewBox="0 0 24 24"><g fill="none">
    <path d="m10 17 5-5-5-5M15 12H3M15 3h4a2 2 0 0 1 2 2v14a2 2 0 0 1-2 2h-4" stroke="#1F1E1E" stroke-width="2" stroke-linecap="round" stroke-linejoin="round"/>
</g></symbol><symbol id="logo" viewBox="0 0 152 111"><g fill="none">
    <path fill="#1F1E1E" d="M0 0h111v111H0z"/>
    <path d="M30.178 54.699H20.111v-16.92h-.025v-.025h-3.538v17.369h13.63v-.424ZM33.173 55.123h13.68v-.424H36.711v-8.422h7.924v-.45h-7.924v-7.649h10.142v-.424h-13.68v17.369ZM53.385 55.123V38.178c2.168 0 8.846.822 9.345 10.49v6.455h3.538V37.754H62.73v7.8c-1.072-4.635-4.46-7.8-9.345-7.8h-3.538v17.369h3.538ZM73.539 55.123V38.178c2.168 0 8.846.822 9.344 10.49v6.455h3.539V37.754h-3.539v7.8c-1.071-4.635-4.46-7.8-9.344-7.8H70v17.369h3.539ZM90.154 55.123h3.538V37.754h-3.538v17.369Z" fill="#fff"/>
    <path fill="#BC3324" d="M61 69h91v32H61z"/>
    <path d="M82.248 93.633h.407l2.22-6.456h6.456l2.515 6.456h3.375l-6.116-15.79h-3.42l-5.437 15.79Zm5.663-15.291 3.284 8.45h-6.184l2.9-8.45ZM100.159 77.844v15.789h3.217v-5.46h3.829l3.692 5.437h3.67l-3.897-5.776c2.266-.59 3.987-1.994 3.987-5.143 0-3.941-2.877-5.187-6.229-5.187-3.534 0-4.553 2.65-5.052 5.595v-5.255h-3.217Zm4.101 3.307c.611-2.22 2.197-3.126 3.601-3.24 3.376-.317 3.512 1.835 3.512 4.78 0 4.78-2.537 5.097-4.712 5.097h-3.285s-.09-3.126.884-6.637ZM122.39 78.229l.022 15.404h3.217V78.229h6.501v-.385h-16.242v.385h6.502Z" fill="#fff"/>
</g></symbol><symbol id="slider" viewBox="0 0 99 2"><g fill="none">
    <rect width="15" height="2" rx="1" fill="#BFBFBF"/>
    <rect x="21" width="15" height="2" rx="1" fill="#BFBFBF"/>
    <rect x="42" width="15" height="2" rx="1" fill="#1F1E1E"/>
    <rect x="63" width="15" height="2" rx="1" fill="#BFBFBF"/>
    <rect x="84" width="15" height="2" rx="1" fill="#BFBFBF"/>
</g></symbol><symbol id="star" viewBox="0 0 24 24"><g fill="none">
    <path d="M21.663 8.772a1 1 0 0 1 .33.462 1 1 0 0 1-.32 1.02l-4.13 4 1 5.68a1 1 0 0 1-.99 1.19.93.93 0 0 1-.46-.12l-5.1-2.68-5.12 2.67a1 1 0 0 1-1.45-1.07l1-5.68-4.13-4a1 1 0 0 1-.25-1 1 1 0 0 1 .81-.68l5.69-.84 2.55-5.16a1 1 0 0 1 1.8 0l2.55 5.17 5.69.83a1 1 0 0 1 .53.208Z" fill="currentColor"/>
</g></symbol><symbol id="tagree" viewBox="0 0 57 17"><g fill="none">
    <path d="M6.301 12.695H4.107a3.15 3.15 0 0 1-1.276-.262 3.309 3.309 0 0 1-1.037-.704 3.6 3.6 0 0 1-.698-1.066 3.227 3.227 0 0 1-.26-1.288V.604L3.23 0v3.843h1.396l.598 2.414H3.23v3.118c0 .255.086.47.26.644a.84.84 0 0 0 .617.261h1.596l.598 2.415ZM16.7 2.615v10.08h-2.393v-5.03c0-.805-.28-1.489-.838-2.052a2.757 2.757 0 0 0-2.034-.845 2.91 2.91 0 0 0-1.117.221 2.862 2.862 0 0 0-.917.624 2.806 2.806 0 0 0-.837 2.052c0 .791.279 1.469.837 2.032.266.282.572.496.918.644.358.134.73.201 1.116.201.4 0 .758-.067 1.077-.201l.858 2.152c-.612.309-1.323.463-2.134.463a5.1 5.1 0 0 1-2.034-.402 5.065 5.065 0 0 1-1.596-1.147 5.253 5.253 0 0 1-1.057-1.69 5.568 5.568 0 0 1-.378-2.052c0-.738.126-1.428.378-2.072a5.252 5.252 0 0 1 1.057-1.69 4.807 4.807 0 0 1 1.596-1.127 4.892 4.892 0 0 1 2.034-.422c.651 0 1.23.1 1.735.302.505.2.95.456 1.336.764v-.805H16.7ZM28.326 11.689c0 .724-.14 1.408-.419 2.052a5.188 5.188 0 0 1-1.116 1.69 5.41 5.41 0 0 1-1.675 1.147 5.03 5.03 0 0 1-2.054.422 5.053 5.053 0 0 1-1.696-.282 5.279 5.279 0 0 1-1.475-.804l1.735-1.73c.425.268.904.402 1.436.402.81 0 1.488-.289 2.034-.865.558-.564.837-1.24.837-2.032V7.645c0-.778-.279-1.462-.837-2.052a2.757 2.757 0 0 0-2.034-.845c-.771 0-1.45.282-2.035.845-.558.59-.837 1.274-.837 2.052 0 .805.28 1.489.837 2.052.585.563 1.264.845 2.035.845.398 0 .757-.067 1.076-.201l.898 2.253a5.12 5.12 0 0 1-1.935.362h-.04a5.194 5.194 0 0 1-2.034-.402 5.41 5.41 0 0 1-2.811-2.837 5.151 5.151 0 0 1-.42-2.072 5.9 5.9 0 0 1 .36-2.072c.24-.644.572-1.207.997-1.69a4.65 4.65 0 0 1 1.555-1.127 4.71 4.71 0 0 1 1.995-.422c.69 0 1.303.107 1.834.322.532.2.997.456 1.396.764v-.784h2.393v9.053ZM31.92 3.4a5.173 5.173 0 0 1 1.257-.764 4.132 4.132 0 0 1 1.615-.302v2.414c-.797 0-1.476.282-2.034.845-.558.59-.837 1.274-.837 2.052v5.05h-2.393V2.615h2.393V3.4ZM42.85 8.872h-5.224c.133.309.325.584.578.825.28.282.592.496.937.644.346.134.712.201 1.097.201.545 0 1.03-.127 1.456-.382l2.493 1.006a5.143 5.143 0 0 1-1.735 1.327 5.28 5.28 0 0 1-2.214.463 5.245 5.245 0 0 1-2.054-.402 5.41 5.41 0 0 1-2.812-2.837 5.322 5.322 0 0 1-.399-2.052c0-.738.133-1.428.4-2.072a5.462 5.462 0 0 1 1.136-1.69 5.136 5.136 0 0 1 1.675-1.127 5.03 5.03 0 0 1 2.054-.422c.731 0 1.416.14 2.054.422a5.136 5.136 0 0 1 1.675 1.127c.479.483.851 1.046 1.117 1.69.28.644.419 1.334.419 2.072 0 .43-.047.832-.14 1.207H42.85Zm-2.612-4.104c-.771 0-1.449.282-2.034.845a2.73 2.73 0 0 0-.578.845h5.224a2.732 2.732 0 0 0-.578-.845 2.757 2.757 0 0 0-2.034-.845ZM54.185 8.872H48.96c.133.309.326.584.578.825.28.282.592.496.937.644.346.134.712.201 1.097.201.545 0 1.03-.127 1.456-.382l2.493 1.006a5.143 5.143 0 0 1-1.735 1.327 5.281 5.281 0 0 1-2.214.463 5.245 5.245 0 0 1-2.054-.402 5.41 5.41 0 0 1-2.812-2.837 5.322 5.322 0 0 1-.398-2.052c0-.738.133-1.428.398-2.072a5.464 5.464 0 0 1 1.137-1.69 5.136 5.136 0 0 1 1.675-1.127 5.03 5.03 0 0 1 2.054-.422c.731 0 1.416.14 2.054.422a5.136 5.136 0 0 1 1.675 1.127c.479.483.851 1.046 1.117 1.69.28.644.419 1.334.419 2.072 0 .43-.047.832-.14 1.207h-2.512Zm-2.613-4.104c-.77 0-1.449.282-2.034.845a2.73 2.73 0 0 0-.578.845h5.225a2.73 2.73 0 0 0-.579-.845 2.757 2.757 0 0 0-2.034-.845Z" fill="#1F1E1E"/>
</g></symbol><symbol id="user" viewBox="0 0 24 24"><g fill="none">
    <path d="M13.3 12.22A4.92 4.92 0 0 0 15 8.5a5 5 0 0 0-10 0 4.92 4.92 0 0 0 1.7 3.72A8 8 0 0 0 2 19.5a1 1 0 1 0 2 0 6 6 0 1 1 12 0 1 1 0 0 0 2 0 8 8 0 0 0-4.7-7.28ZM10 11.5a3 3 0 1 1 0-6 3 3 0 0 1 0 6Zm11.71-2.37a1 1 0 0 0-1.42 0l-2 2-.62-.63a1.002 1.002 0 0 0-1.71.705 1 1 0 0 0 .29.705l1.34 1.34a1 1 0 0 0 1.41 0l2.67-2.67a1 1 0 0 0 .04-1.45Z" fill="#1F1E1E"/>
</g></symbol><symbol id="vk" viewBox="0 0 58 58"><g fill="none">
    <circle cx="29" cy="29" r="29" fill="#1F1E1E"/>
    <path d="M22.71 19A3.725 3.725 0 0 0 19 22.71v12.58A3.725 3.725 0 0 0 22.71 39h12.58A3.725 3.725 0 0 0 39 35.29V22.71A3.725 3.725 0 0 0 35.29 19H22.71Zm0 1.818h12.58c1.054 0 1.892.838 1.892 1.893v12.578a1.881 1.881 0 0 1-1.893 1.893H22.711a1.88 1.88 0 0 1-1.893-1.893V22.711c0-1.055.838-1.893 1.893-1.893Z" fill="#fff"/>
    <path fill-rule="evenodd" clip-rule="evenodd" d="M34.725 26.406c.083-.234 0-.406-.398-.406h-1.312c-.334 0-.488.149-.572.313 0 0-.667 1.37-1.613 2.26-.306.257-.445.34-.612.34-.083 0-.209-.083-.209-.317v-2.19c0-.28-.092-.406-.37-.406h-2.064c-.208 0-.334.13-.334.254 0 .266.473.328.522 1.077v1.628c0 .357-.077.422-.244.422-.445 0-1.527-1.377-2.17-2.951-.124-.307-.25-.43-.585-.43H23.45c-.375 0-.45.149-.45.313 0 .292.445 1.744 2.073 3.665C26.157 31.289 27.684 32 29.076 32c.835 0 .938-.158.938-.43v-.991c0-.316.079-.379.343-.379.195 0 .529.082 1.308.714.89.75 1.036 1.086 1.537 1.086h1.313c.375 0 .563-.158.455-.47-.12-.31-.544-.76-1.108-1.295-.306-.304-.765-.632-.904-.796-.195-.21-.14-.304 0-.492 0 0 1.6-1.897 1.766-2.54Z" fill="#fff"/>
</g></symbol><symbol id="x" viewBox="0 0 24 24"><g fill="none">
    <path d="M18 6 6 18M6 6l12 12" stroke="currentColor" stroke-width="2" stroke-linecap="round" stroke-linejoin="round"/>
</g></symbol></svg>