<svg  viewBox="0 0 58 58" fill="none" xmlns="http://www.w3.org/2000/svg">
<circle cx="29" cy="29" r="29" fill="#1F1E1E"/>
<path d="M22.7109 19C21.7279 19.0038 20.7862 19.396 20.0911 20.0911C19.396 20.7862 19.0038 21.7279 19 22.7109V35.2891C19.0038 36.2721 19.396 37.2138 20.0911 37.9089C20.7862 38.604 21.7279 38.9962 22.7109 39H35.2891C36.2721 38.9962 37.2138 38.604 37.9089 37.9089C38.604 37.2138 38.9962 36.2721 39 35.2891V22.7109C38.9962 21.7279 38.604 20.7862 37.9089 20.0911C37.2138 19.396 36.2721 19.0038 35.2891 19H22.7109ZM22.7109 20.8182H35.2891C36.3436 20.8182 37.1818 21.6564 37.1818 22.7109V35.2891C37.1818 36.3436 36.3436 37.1818 35.2891 37.1818H22.7109C22.4619 37.1834 22.2151 37.1355 21.9847 37.0409C21.7544 36.9464 21.5451 36.807 21.3691 36.631C21.193 36.4549 21.0536 36.2456 20.9591 36.0153C20.8645 35.7849 20.8166 35.5381 20.8182 35.2891V22.7109C20.8182 21.6564 21.6564 20.8182 22.7109 20.8182Z" fill="white"/>
<path fill-rule="evenodd" clip-rule="evenodd" d="M34.7248 26.4063C34.8078 26.1723 34.7248 26 34.3273 26H33.0148C32.6808 26 32.5268 26.1487 32.4433 26.3129C32.4433 26.3129 31.7758 27.6826 30.8303 28.5723C30.5243 28.8303 30.3853 28.9121 30.2183 28.9121C30.1349 28.9121 30.0094 28.8303 30.0094 28.5959V26.4063C30.0094 26.1251 29.9174 26 29.6394 26H27.5754C27.3669 26 27.2414 26.1303 27.2414 26.2541C27.2414 26.5203 27.7144 26.582 27.7629 27.3311V28.9589C27.7629 29.3159 27.6864 29.3806 27.5194 29.3806C27.0744 29.3806 25.9919 28.0044 25.3495 26.4299C25.225 26.1234 25.099 26 24.7635 26H23.45C23.075 26 23 26.1487 23 26.3129C23 26.6051 23.445 28.0571 25.0725 29.9776C26.1574 31.289 27.6849 32 29.0764 32C29.9109 32 30.0139 31.8423 30.0139 31.5701V30.5789C30.0139 30.263 30.0929 30.2 30.3573 30.2C30.5523 30.2 30.8858 30.2823 31.6648 30.9144C32.5548 31.664 32.7013 32 33.2023 32H34.5148C34.8898 32 35.0777 31.8423 34.9698 31.5303C34.8508 31.22 34.4258 30.7696 33.8623 30.2351C33.5563 29.9309 33.0973 29.603 32.9578 29.4389C32.7633 29.2284 32.8188 29.1346 32.9578 28.9473C32.9578 28.9473 34.5578 27.0504 34.7243 26.4063H34.7248Z" fill="white"/>
</svg>
